<svg width="19" height="19" fill="none" xmlns="http://www.w3.org/2000/svg"><mask id="a" fill="#fff"><path d="M8 16a7.952 7.952 0 0 0 4.897-1.688l4.396 4.396 1.414-1.414-4.396-4.396A7.952 7.952 0 0 0 16 8c0-4.411-3.589-8-8-8S0 3.589 0 8s3.589 8 8 8ZM8 2c3.309 0 6 2.691 6 6s-2.691 6-6 6-6-2.691-6-6 2.691-6 6-6Z"/></mask><path d="M8 16a7.952 7.952 0 0 0 4.897-1.688l4.396 4.396 1.414-1.414-4.396-4.396A7.952 7.952 0 0 0 16 8c0-4.411-3.589-8-8-8S0 3.589 0 8s3.589 8 8 8ZM8 2c3.309 0 6 2.691 6 6s-2.691 6-6 6-6-2.691-6-6 2.691-6 6-6Z" fill="#FD5103" stroke="#FD5103" stroke-width="2" mask="url('#a')"/></svg>