<svg width="19" height="17" fill="none" xmlns="http://www.w3.org/2000/svg"><path d="m9.5 17-1.377-1.223C3.23 11.451 0 8.597 0 5.095 0 2.242 2.299 0 5.225 0 6.878 0 8.465.75 9.5 1.936A5.749 5.749 0 0 1 13.775 0C16.701 0 19 2.242 19 5.095c0 3.502-3.23 6.356-8.123 10.691L9.5 17Z" fill="#FD5103"/><path d="m9.5 15.21-1.115-.965C4.425 10.829 1.81 8.576 1.81 5.812c0-2.253 1.86-4.023 4.23-4.023 1.337 0 2.622.592 3.46 1.529.838-.937 2.123-1.529 3.46-1.529 2.37 0 4.23 1.77 4.23 4.023 0 2.764-2.614 5.017-6.575 8.44L9.5 15.21Z" fill="#FCFCFC"/></svg>